<?xml version="1.0" standalone="no"?><!DOCTYPE svg PUBLIC "-//W3C//DTD SVG 1.1//EN" "http://www.w3.org/Graphics/SVG/1.1/DTD/svg11.dtd"><svg xmlns:xlink="http://www.w3.org/1999/xlink" xmlns="http://www.w3.org/2000/svg" version="1.1" width="200" height="200" viewBox="0 0 200 200"><defs><style type="text/css"><![CDATA[
html, * { -moz-user-select: text ! important; }
@font-face {
  font-family: "ifont";
  src: url("//at.alicdn.com/t/font_1442373896_4754455.eot?#iefix") format("embedded-opentype"), url("//at.alicdn.com/t/font_1442373896_4754455.woff") format("woff"), url("//at.alicdn.com/t/font_1442373896_4754455.ttf") format("truetype"), url("//at.alicdn.com/t/font_1442373896_4754455.svg#ifont") format("svg");
}

]]></style></defs><g class="transform-group"><g transform="scale(0.1953125, 0.1953125)"><path d="M777.706713 958.160479 250.384633 958.160479c-58.238742 0-105.469328-47.27163-105.469328-105.465007L144.915305 219.931015c0-58.280358 47.229563-105.442494 105.469328-105.442494l52.723919 0L303.108552 88.116897c0-14.641465 11.796134-26.371624 26.372705-26.371624l369.129856 0c14.576571 0 26.372705 11.730159 26.372705 26.371624l0 26.371624 52.723919 0c58.238742 0 105.469328 47.162136 105.469328 105.442494l0 632.765481C883.176041 910.888849 835.946478 958.160479 777.706713 958.160479L777.706713 958.160479zM830.430632 219.931015c0-29.150924-23.637295-52.721759-52.723919-52.721759l-79.096623 0L329.480233 167.209256l-79.096623 0c-29.108114 0-52.723919 23.570835-52.723919 52.721759l0 632.765481c0 29.107945 23.614781 52.744271 52.723919 52.744271L777.706713 905.440767c29.086624 0 52.723919-23.636327 52.723919-52.744271L830.430632 219.931015 830.430632 219.931015zM303.108552 747.231489l421.875265 0 0 52.744271L303.108552 799.97576 303.108552 747.231489 303.108552 747.231489zM303.108552 589.04677l421.875265 0 0 52.742225L303.108552 641.788995 303.108552 589.04677 303.108552 589.04677zM303.108552 430.861028l421.875265 0 0 52.721759L303.108552 483.582787 303.108552 430.861028 303.108552 430.861028zM303.108552 272.674263l421.875265 0 0 52.721759L303.108552 325.396021 303.108552 272.674263 303.108552 272.674263zM303.108552 272.674263" fill="#FFFFFF"></path></g></g></svg>